<svg version="1.0" xmlns="http://www.w3.org/2000/svg"
 width="281.000000pt" height="207.000000pt" viewBox="0 0 281.000000 207.000000"
 preserveAspectRatio="xMidYMid meet">

<g transform="translate(0.000000,207.000000) scale(0.100000,-0.100000)"
fill="#000000" stroke="none">
<path d="M135 2050 c-22 -9 -52 -31 -67 -46 -61 -65 -58 -22 -58 -971 0 -818
1 -870 19 -908 22 -50 79 -101 128 -115 27 -8 400 -10 1269 -8 l1231 3 49 30
c30 19 58 47 71 71 l23 41 0 887 0 888 -22 41 c-26 46 -72 82 -127 97 -23 6
-467 10 -1256 9 -1156 0 -1222 -1 -1260 -19z m2108 -477 l197 -197 0 -61 0
-61 -114 -107 c-63 -59 -119 -107 -123 -107 -5 0 -50 44 -101 98 l-91 99 42
41 42 42 -85 85 -85 85 -222 0 -223 0 0 -175 0 -175 163 0 162 0 130 -130 130
-130 -347 -347 -346 -346 -561 559 c-309 308 -561 563 -561 568 0 4 91 102
202 217 111 114 206 215 210 224 8 13 91 15 696 15 l687 0 198 -197z"/>
<path d="M726 1404 l-79 -86 364 -364 364 -364 150 150 150 150 -130 0 -130 0
-107 103 -108 104 0 196 0 197 -197 0 -198 0 -79 -86z"/>
</g>
</svg>
